# xmcd
#
# Track frame offsets:
#	187
#	15097
#	27342
#	39302
#	51975
#	63737
#	79652
#	93290
#	105982
#	119392
#	132097
#	147777
#	159337
#	173680
#	187437
#	199237
#
# Disc length: 2892 seconds
#
# Revision: 1
# Processed by: cddbd v1.5.1PL0 Copyright (c) Steve Scherf et al.
# Submitted via: CDex 1.50Beta5
#
DISCID=cf0b4a10
DTITLE=カーナビーツ - カーナビーツ/NEW BEST ザ・カーナビーツ
DYEAR=1993
DGENRE=Pop
TTITLE0=好きさ好きさ好きさ
TTITLE1=口笛天国
TTITLE2=恋をしようよジェニー
TTITLE3=おまえに夢中さ
TTITLE4=オーケイ!
TTITLE5=クレイジー・ラブ
TTITLE6=泣かずにいてね
TTITLE7=チュッ!チュッ!チュッ!
TTITLE8=愛を探して
TTITLE9=モニー・モニー
TTITLE10=マイ・ベイビー
TTITLE11=恋の想い出箱
TTITLE12=オブラディ・オブラダ
TTITLE13=夕陽が沈む町
TTITLE14=すてきなサンデイ
TTITLE15=吹きすさぶ風
EXTD=
EXTT0=
EXTT1=
EXTT2=
EXTT3=
EXTT4=
EXTT5=
EXTT6=
EXTT7=
EXTT8=
EXTT9=
EXTT10=
EXTT11=
EXTT12=
EXTT13=
EXTT14=
EXTT15=
PLAYORDER=
